/* XPM */
static char *cf677c665e0e4020f9ddff01f66177ca[] = {
/* columns rows colors chars-per-pixel */
"32 32 235 2 ",
"   c None",
".  c #000004",
"X  c #000014",
"o  c #00001E",
"O  c #070E19",
"+  c #1E1A19",
"@  c #231D1D",
"#  c #2C241A",
"$  c #000022",
"%  c #030A22",
"&  c #03072A",
"*  c #0B122D",
"=  c #081629",
"-  c #171A26",
";  c #021533",
":  c #0C1B32",
">  c #091C36",
",  c #101830",
"<  c #000E34",
"1  c #251D21",
"2  c #1F2D3A",
"3  c #19202E",
"4  c #222938",
"5  c #25323D",
"6  c #363937",
"7  c #22292F",
"8  c #493B2B",
"9  c #473933",
"0  c #523B2E",
"q  c #564325",
"w  c #4B4A3D",
"e  c #494638",
"r  c #534D3C",
"t  c #5A4935",
"y  c #545133",
"u  c #604C2F",
"i  c #735129",
"p  c #6B5233",
"a  c #69563A",
"s  c #67593D",
"d  c #7A5F37",
"f  c #754F24",
"g  c #7C6535",
"h  c #73633D",
"j  c #7B683B",
"k  c #67603F",
"l  c #192B45",
"z  c #1E364C",
"x  c #1A3B58",
"c  c #2B3D4C",
"v  c #283746",
"b  c #303A52",
"n  c #2F414C",
"m  c #394647",
"M  c #2D4358",
"N  c #374A59",
"B  c #2C4963",
"V  c #345162",
"C  c #4B4E42",
"Z  c #4C4E4C",
"A  c #4A4844",
"S  c #49534C",
"D  c #595543",
"F  c #565946",
"G  c #475955",
"H  c #4B4B4B",
"J  c #645C47",
"K  c #645E50",
"L  c #55675E",
"P  c #696446",
"I  c #736541",
"U  c #736A43",
"Y  c #7B6E43",
"T  c #736A4A",
"R  c #796C4A",
"E  c #7B714D",
"W  c #797046",
"Q  c #646452",
"!  c #677158",
"~  c #787855",
"^  c #465961",
"/  c #707764",
"(  c #885828",
")  c #8A6939",
"_  c #966B34",
"`  c #8B743D",
"'  c #91733A",
"]  c #937C3F",
"[  c #9C793B",
"{  c #9D7535",
"}  c #92672B",
"|  c #A17532",
" . c #856C43",
".. c #867244",
"X. c #8D7444",
"o. c #8C7E43",
"O. c #847349",
"+. c #8B754A",
"@. c #8C7A4A",
"#. c #837A4D",
"$. c #977B46",
"%. c #857E54",
"&. c #A17F40",
"*. c #A9843A",
"=. c #BB863B",
"-. c #BC8B3C",
";. c #B78337",
":. c #AF903E",
">. c #BF973F",
",. c #C38435",
"<. c #C68B3C",
"1. c #CA8C3B",
"2. c #C88735",
"3. c #D28F38",
"4. c #CB933E",
"5. c #C59B3E",
"6. c #D4943D",
"7. c #D9993C",
"8. c #E09739",
"9. c #E99C3A",
"0. c #E39939",
"q. c #E7972B",
"w. c #FBA02F",
"e. c #F1A43C",
"r. c #FAA93F",
"t. c #FBB03F",
"y. c #EBA53B",
"u. c #8F824D",
"i. c #9B8246",
"p. c #978947",
"a. c #95844B",
"s. c #9C844A",
"d. c #978848",
"f. c #828051",
"g. c #988650",
"h. c #9B9549",
"j. c #AE8541",
"k. c #A18349",
"l. c #A2894C",
"z. c #AC8B4B",
"x. c #A98846",
"c. c #B68945",
"v. c #AC974A",
"b. c #BC9347",
"n. c #B3914B",
"m. c #BD944C",
"M. c #B1994B",
"N. c #A88C51",
"B. c #B28F51",
"V. c #AD9554",
"C. c #AB9754",
"Z. c #B59D53",
"A. c #B79956",
"S. c #AEA05A",
"D. c #B9A658",
"F. c #878B62",
"G. c #BAAB63",
"H. c #C08F45",
"J. c #CC9343",
"K. c #C99B48",
"L. c #D39A44",
"P. c #DB9C44",
"I. c #D59E49",
"U. c #D19643",
"Y. c #CA9D58",
"T. c #E19E43",
"R. c #DCA344",
"E. c #DBA34A",
"W. c #D7A44B",
"Q. c #C4AC5B",
"!. c #C8A355",
"~. c #DBAA55",
"^. c #D6AC5A",
"/. c #D8AA55",
"(. c #CCB05E",
"). c #DDB156",
"_. c #C9AD4E",
"`. c #E4A344",
"'. c #EBA444",
"]. c #E3A54B",
"[. c #ECAC4C",
"{. c #EBAB49",
"}. c #F3AC44",
"|. c #F4AB46",
" X c #EDB24D",
".X c #FCB345",
"XX c #F2B24D",
"oX c #FAB54C",
"OX c #FBB94B",
"+X c #E2A751",
"@X c #E5AB54",
"#X c #E4AF5A",
"$X c #ECAE54",
"%X c #EDBB56",
"&X c #E3B359",
"*X c #EFBC5C",
"=X c #E8B559",
"-X c #FCBA53",
";X c #F2B55B",
":X c #FABD5B",
">X c #F6B755",
",X c #CBB260",
"<X c #D7BD6B",
"1X c #F1BB64",
"2X c #E1BF6B",
"3X c #FFC34D",
"4X c #FDC45B",
"5X c #FFCC5D",
"6X c #F7C157",
"7X c #FFD55E",
"8X c #E6C258",
"9X c #D8C262",
"0X c #E6C367",
"qX c #FDC462",
"wX c #F6C866",
"eX c #FFD465",
"rX c #FFD56C",
"tX c #FCDA6A",
"yX c #E8CD70",
"uX c #F1D274",
"iX c #F7DA79",
"pX c #EED173",
"aX c #FEE56B",
"sX c #FFE271",
"dX c #FFEB79",
"fX c #FCE77A",
"gX c #FFF37B",
"hX c #FFF778",
"jX c #EFD980",
"kX c #FFFA82",
"lX c #FFFC8B",
"zX c #FFF68A",
"xX c #FFFE90",
"cX c #FEF696",
"vX c #FDEA90",
/* pixels */
"                          [ d.k.l.i.{                           ",
"                    a.~ S G c c $ n L F I k.                    ",
"                @.! N v e O.g.n.k.$.E w 2 v T {                 ",
"            b.! z H a.D.sXdXdXkXgXrXeX Xb.o.n c ) 7.            ",
"          Z.L l P 9XhXlXvXjXfXU @.tX<XwX%XOX-.P l t W.          ",
"        M.G b d.hXxXvXlX(.j dXA.Q.%Xh ~.%X^.}.y.` V 8 5.        ",
"      !.G * M.lXxXjXyXD.lXC.9XG.,XQ.m.4Xj.W.4.L.e.} V p >.      ",
"      F.b l.lXcXiXiXiXu.h.D.9 C C w K.) j.R.I.4.J.e.g & {       ",
"    C.M T hXcXjXjXpXuXgXq - = : , 3 = i -XJ.J.J.J.I.0.D Z ;.    ",
"    / H 8XxXuXuXuXpX0XtXV.X e D D 6 % J.`.J.2.2.1.<.'.=.z $.    ",
"  g.M ..kXcXkXiX0XtXsXwX^.).6X X3X Xb.`.`.,.T.'.J.U.-XoXs 6 j.  ",
"  %.n 0X<Xy k Q.yXR J A.6XM._ e.' +./.p ( e.U.J C.k.p |.n.; '   ",
"  / Q eXfX+ . u.hXF o #.eX{ *.d < =.q.d 8 `.% w }.{.@ _ XXm E   ",
"&.^ +.rXlXd.X y aX!.& C 3X-._ o y }.,.6.U.8 $ H.}.'.2.z.3XP P g ",
"s.b k.rXiX0X- , ).,X5 - K.L.i o p 9.U.3.0.@ = m.oXI.1X;X>Xh A ` ",
"k.z N.eX&XtXs o #.wXO.& h `.f o a 9.2.].T.+ ; m.>XE.[.[.-XY 6 p.",
"&.^ B.5X^.eXz.% 5 &XK.* 7 0.} o a e.2.[.T.@ & K.-X@X+XJ.4XO.C p.",
"&.N X.qX0X=X%X7 : E.{.2 - T.8.- : `.OX| q ' X R 5XrXy h aXT C ` ",
"[ 5 a 4X^.I.OXa w }.}.D t 9.0.6.9 E /.t u 7XX.6 D.V.# m.tXF T j ",
"  / Q R.W.R.`.R.I.2.1.I.6.2.,.9.}.-.=.~.6X+X4X=XY.;XeXqX~.O W   ",
"   .V -.-X-...L.3.,.,.6.P.J.P.'.{.'.{.@X].].+X:X:X@.A.sXZ.- ]   ",
"  | N +..X) C J.7.1.U.6.6.P.6.O.X.P.@X].#X#X;XqXX.~ D.eXP Q p.  ",
"    J b 2.T.j.X.c.`.J.L.I.9.J.; 5 R.{.#X$X;XqX!.~ D.hX*.; s.    ",
"    | N K w.,. .@.=.}.P.L.E.P.$.x. X#X@X;XqX0Xg.#.1X%Xm 9 D.    ",
"      ) B X.|.'.I U.=.P.'.I.#X.X-X1X$X:XwXa.F D.yX4XE 2 z.      ",
"      `.t B ' e.|._ U m.B.XX#X$X+X~.qXn.h.S.P ).7XY l l.        ",
"        4.9 x ) t.y.#XO.) [ Y d ~.h I x.%.wXeX6XD : X.S.        ",
"          L.t B L -..X$X~.z.z.X.^.B.N.rXtX1Xn.S v ) v.          ",
"            5.i.4 ; ~ n.].5X5XeX4XtXeX/.l.w l r ]               ",
"                :.I Z v S C E +.@.T S S 5 @  .Q.                ",
"                    n.a.P K F Z Z A D O.i.D.                    ",
"                          ] o.p.p.o.i.                          "
};
