/* XPM */
static char *_1a121ce573f4a97a167c2d27b6ce859[] = {
/* columns rows colors chars-per-pixel */
"64 64 255 2 ",
"   c None",
".  c #010002",
"X  c #00000C",
"o  c #0B060C",
"O  c #010115",
"+  c #00041C",
"@  c #020A1C",
"#  c #0B0C18",
"$  c #16161B",
"%  c #100E17",
"&  c #261C18",
"*  c #2C140C",
"=  c #2B221D",
"-  c #39281D",
";  c #3D2915",
":  c #020925",
">  c #0C1A2C",
",  c #091428",
"<  c #141B24",
"1  c #131B2C",
"2  c #1A1B25",
"3  c #081832",
"4  c #141E31",
"5  c #1C222D",
"6  c #1A2227",
"7  c #1B2332",
"8  c #192636",
"9  c #2C2C2C",
"0  c #262628",
"q  c #352D28",
"w  c #373329",
"e  c #242B33",
"r  c #2B2D33",
"t  c #252C38",
"y  c #2C343B",
"u  c #2A3339",
"i  c #333433",
"p  c #3A3A35",
"a  c #3B3C3B",
"s  c #353939",
"d  c #2B372E",
"f  c #261E25",
"g  c #4A2E1A",
"h  c #473928",
"j  c #46372E",
"k  c #3C433C",
"l  c #3F412D",
"z  c #584529",
"x  c #474639",
"c  c #554B38",
"v  c #59543A",
"b  c #48462F",
"n  c #684D2D",
"m  c #77572B",
"M  c #685738",
"N  c #755B34",
"B  c #6C4E2C",
"V  c #78643B",
"C  c #6E6538",
"Z  c #744A1E",
"A  c #343C44",
"S  c #283341",
"D  c #182C41",
"F  c #403F44",
"G  c #3A4346",
"H  c #464A46",
"J  c #4C5549",
"K  c #555648",
"L  c #4A5354",
"P  c #575B55",
"I  c #4A4E48",
"U  c #655D43",
"Y  c #605F52",
"T  c #5C6357",
"R  c #556347",
"E  c #676548",
"W  c #766947",
"Q  c #787547",
"!  c #666958",
"~  c #707255",
"^  c #556062",
"/  c #676D63",
"(  c #6C7267",
")  c #737463",
"_  c #797B66",
"`  c #777C73",
"'  c #545E63",
"]  c #885B29",
"[  c #9A6429",
"{  c #886937",
"}  c #8A743C",
"|  c #98763B",
" . c #936832",
".. c #BB7A2E",
"X. c #AA7837",
"o. c #B57832",
"O. c #B1601C",
"+. c #C37C2C",
"@. c #C07731",
"#. c #846D43",
"$. c #877849",
"%. c #977B45",
"&. c #857B52",
"*. c #927C54",
"=. c #7A895A",
"-. c #7D816B",
";. c #B8873C",
":. c #AF8337",
">. c #9E833F",
",. c #C8822E",
"<. c #C68433",
"1. c #CC8A34",
"2. c #C58B3C",
"3. c #CB8D3B",
"4. c #C78736",
"5. c #D68B35",
"6. c #CD923C",
"7. c #D3933C",
"8. c #D9963B",
"9. c #DA8C2E",
"0. c #E69938",
"q. c #EB9430",
"w. c #EBA23D",
"e. c #F7A73B",
"r. c #FFB23E",
"t. c #9A844A",
"y. c #898655",
"u. c #988954",
"i. c #959054",
"p. c #A88847",
"a. c #B78C44",
"s. c #A8944D",
"d. c #B99649",
"f. c #A79656",
"g. c #B69B55",
"h. c #A58D54",
"j. c #BAA65A",
"k. c #AEA75B",
"l. c #84856D",
"z. c #858772",
"x. c #99997B",
"c. c #959669",
"v. c #A49C61",
"b. c #A8AA68",
"n. c #B6A964",
"m. c #AFB06F",
"M. c #9DA07F",
"N. c #C78D41",
"B. c #CD9442",
"V. c #C99848",
"C. c #D29643",
"Z. c #D39B45",
"A. c #DB9C43",
"S. c #D39D4A",
"D. c #DA9F49",
"F. c #D69745",
"G. c #C99D53",
"H. c #DE964A",
"J. c #E69944",
"K. c #C8A24D",
"L. c #DCA246",
"P. c #D5A34C",
"I. c #DCA34D",
"U. c #DCAA4C",
"Y. c #D9A445",
"T. c #C7A857",
"R. c #D5A452",
"E. c #DCA652",
"W. c #DCAC53",
"Q. c #D8AC59",
"!. c #DCB35B",
"~. c #D8B459",
"^. c #C8B65D",
"/. c #E3A345",
"(. c #E2A54B",
"). c #E4AA4D",
"_. c #EBA848",
"`. c #F6AC44",
"'. c #EAB24B",
"]. c #FCB345",
"[. c #F4B44A",
"{. c #FDBA4C",
"}. c #F9B74A",
"|. c #E4AB54",
" X c #EBAD54",
".X c #E5AF5A",
"XX c #E4A756",
"oX c #ECB353",
"OX c #E4B35B",
"+X c #EAB35B",
"@X c #E4BC5C",
"#X c #E7B757",
"$X c #F4BC55",
"%X c #FBBC53",
"&X c #F6B759",
"*X c #F4AC52",
"=X c #CCB866",
"-X c #D8B964",
";X c #E3BB63",
":X c #E9BA64",
">X c #F4BC65",
",X c #EDAE60",
"<X c #FFC54E",
"1X c #ECC45A",
"2X c #FEC455",
"3X c #FDC45B",
"4X c #FFCB5C",
"5X c #F7C658",
"6X c #FFD559",
"7X c #FFD24F",
"8X c #D9C366",
"9X c #D3C975",
"0X c #E5C46B",
"qX c #EAC56A",
"wX c #ECCA6C",
"eX c #E6C665",
"rX c #FECC64",
"tX c #F7C766",
"yX c #EAD26B",
"uX c #FFD364",
"iX c #FDD46C",
"pX c #FFDA6C",
"aX c #F8D569",
"sX c #ECCC72",
"dX c #E6C672",
"fX c #F6CB73",
"gX c #ECD275",
"hX c #F3D473",
"jX c #FEDC72",
"kX c #F5DB7D",
"lX c #F7D777",
"zX c #FFE36A",
"xX c #FEE374",
"cX c #FFEC7C",
"vX c #FBE679",
"bX c #FFF47A",
"nX c #EAE574",
"mX c #969984",
"MX c #A19E82",
"NX c #A7A98B",
"BX c #B6B692",
"VX c #B2B58F",
"CX c #ABAE94",
"ZX c #C4C694",
"AX c #F5DD81",
"SX c #F2DE8B",
"DX c #EDD984",
"FX c #FAE586",
"GX c #FFF787",
"HX c #F9EB92",
"JX c #FDF796",
"KX c #CDCFA7",
"LX c #FDFCA7",
"PX c #FFFFBB",
"IX c #C3BF97",
/* pixels */
"                                                        d.V.W.W.U.W.d.N.                                                        ",
"                                              d.~.-Xj.n.f.y.Q W y.y.i.p.j.T.!.W.                                                ",
"                                        N.8Xj.v.E R k 5 2 r P I + + 5 J 0 s v Q k.P.oX                                          ",
"                                    U.8Xv.T k $ H i BX) J mXP ( a e r KX=.Y _ 5 @ x M j.@Xa.                                    ",
"                                Z.9Xy.k 0 e BXE J A H G k K x b K b i H s t ^ Y _ K s + b ;.5XT.                                ",
"                              eXb.d < ) VXH L G l #.t.d.Y.@X[.uX}.4X'.4.s.} M x p G z.! ! 0 b ;.1X                              ",
"                          P.9XJ 2 P _ z.a I C V.pX6XuXFX5XFX5XAX@XhXtXtXrX}.4XA.>.$.9 G x.x.< 6 m 2X~.                          ",
"                        eXb.O H ) ! H x t.[.bXzXjXJXhXFXHXwXHXGXGXqXsXDX@XeX;X).uXe.U.} d > ) ZXO * Y.P.                        ",
"                      yX=.1 _ P L d u.}.bXcXkXHXHXAXvXAXwXhXqX$.h.tX@X;XfXOX;XdX!.R.@Xe.U.C s H ) P . o.4X                      ",
"                    hXR $ x.z.8 c [.vXFXvXJXvXhXAXFXHXxXwXbX>.. + 1XqX#XiXlX;X!.Y.W.OXR.).e.K.& A ~ P 4 ] 2X                    ",
"                  yXT L x.P 7 | xXvXvXJXHXAXAXhXcX~.$ V xXtX;X&.f.eX5XW.2 c 3XW.W.U.W.-XY.B.'.].z 0 KX! . ] 2X                  ",
"                xX! X MX` $ =XzXpXLXFXlXkXHXAXsXvXQ.0 t.zX8XvX8XwXsX@X[.p M [.U.P.;X;XZ.6.W.B.1.7X} , ` &.X [ 6X                ",
"              rX=.X Y , 8 !.7XLXHXvXkXnXFXkXbXvX0XFXcXg.wXhXpXI $.4XtXT.K.pX-XZ.[.U.Q.P.6.6.6.~...`.| 6 mX-.@ ,.~.              ",
"            U.b.t ! A y ).bXHXvXvXkXhXFXkXxXz s.JXdXzXj K bXuXu W zXjXe | %X!.4XM | w.~.Y.1.6.4.S.2.e.| # M.( . {.s.            ",
"            9Xs ) z.7 =X6XvXJXFXAXAXAXlXyXaXi.W g.bXcXp.+ n.-X3 x nXK : W.%X[.| #.;.8.1.P.P.6.B.B.S.O.<XV 5 K < g 7X            ",
"          aXP F z.1 p.6XLXHXvXFXAXkXkXhXhXsXJX~.. V bXj.: 0 y A s s > a 5X'.g & 2X#XV.Z.6.V.B.B.3.<.-X+.].- 7 I . X.tX          ",
"        V.m.# l.G ~ cXjXFXHXFXAXkXkXkXlXgXlX;XbX} . b x r i r j s r i i v 6 O A._.S.P.S.S.S.C.B.N.S.R.N.5.3XX u NX= ].          ",
"        eXJ ) L k e.pXLXhXkXAXkXlXgXgXsXsXdXqXkXtX6 + 2 p s s s j a p i 2 : n 5XS.S.B.B.B.3.N.N.B.6...B.N.q.p.y VX: m 4X        ",
"      V.c.1 BX^ t.bXFXFXFXFXkXkXgXkXsXeXeX:X;X@XuXn + 6 1 1 7 8 8 8 5 5 0 : X.w.2.4.4.<.<.N.B.B.C.B.C.C.E.B.<Xh s _ # }.        ",
"      eXP P H K }.pXHXhXhXhXyXyXwXqXsXsXwX0XqX;XFX{ O p c U W W W E K x 5 : G.$XV.C.C.C.V.3.+.4.<.4.1.1.1.C.5.V.6 x.L Z 1X      ",
"    ;.m.# _ G p.cXkXAXkXkXlXgXsXsXsXqXqX0X0X!.!.@XG.V.#X$X$X2X%X%X[.'./.N.X.2.3.<.B.V.B.B.B.C.B.B.S.C.Z.S.P.N.2Xz P r o 3X      ",
"    ~.~ ( P a }.jXPXGXGXFXcXvXjX0XiXiXrX3XrXiXtXQ.:XuXuXaX[.Y.B.B.7.'.%X`.{.'.Z.Y.Z...,.4.N.3.0._.8.J.`.A..X!.q.j.o ) 7 ;.T.    ",
"    -Xy -.^ $.bX9X$.n.=Xn.=Xn.n.hXn.n.=XT.T.d.g.#XOXp.X.a.] ;./.].).p.&.h.$. .8.8...3.3.F.`.*Xh.&.v.u.$.(._.R.XXe.v H e n 3X    ",
"  :.b.y P G 6.uXkX] X O % O M ^.tXn.I 3 y , K =XOX;Xp.| 0 m 8.{.{ u 8 t.N.a.H f q  ._.D.`.{ i 8 %.N.a.c 2 & [ J.[.V y ! % 1X    ",
"  Q.~ P mXc wXhXFXJXb O 9 @ E GX;XcXn.1 a 1 K uXC.P.<X;.z 7X].w : 3 g.e.,.9.r.h O [ q.0.c , : h.2XA._.6Xc O | tX5Xd.i T O R.t.  ",
"  -XK ` ^ M <XkXwXbXp.O 9 0 6 ~.5X#XwXG t A e T.fXZ.].N m <Xz : 5 J `.+.1...8.:X# { uXn : 2 H `.5.7.C.J.`.$ m %X,.A.l mXy ] 8X  ",
"  ^.k ! L p.rXlXgXaXtX& 2 q : t.uXR.4X$.4 j , y.4XB.[.z 2.;.+ 9 1 W 0.+.+.4.+.%XU Z (.+ 0 > E `.1.8.7.6.{.m g rXW.4Xz ( P z yX  ",
"  g.A l.J ;.iXSXgXgXbXM + i > c pX!.uXu.3 j 4 c [.8.6.v r.z @ q 4 %.9.S.S.+.3.1.4.8.m @ 9 1 $.{.S.U.E.E.(.D.d.tXE.`.%.6 6 h 5X  ",
"X.f.A ! K D.$XDX:XdXFXd.O 9 0 e Q.oX1X~ t i i e V.e.%.N r.= , 9 4 %.9.<.R.C.+.3.8.}.j @ 9 > %.`.Z.F.D.A.Z.>XoXE..X6X$.d x.- 1X  ",
"V.y.S ^ K oXhXwXwXqXgXjXw 2 i , u.6Xd.v.&.1 a > } 6XW  .0.& < 9 4 %.0.<.+.R.C.,.5.9.& < 9 > %.{.D.I.D.E.:X.XW.|.E.oX:.i ! % eX  ",
"P.&.e L K `.|.eXOX@XW.xX$.+ i 1 v zX$.g.T.3 a 1 K 2Xn ;.1.$ 6 9 1 X.0.4.1.1.R.S.D.A.& $ 9 > *.%XE.E.E.OX(.A.W.J.XXoXd.0 ! o ~.  ",
"D.W T ` c 3XgX;X@X!.!.5XG.< 9 9 8 ;Xy.G.+Xs r r 9 B.V 0.,.& 6 9 8 %.0.4.3.1.1.F.(._.0 < 9 > %.%XE.(.|.L.A.(. X(.+X&XK.9 J = ~.=.",
"D.Q H ^ Y w.).eXW.|.U.Q.uXb , p 1 ~ i.U.%XE 1 p 0 K | 0.9.- , 9 > %.0.3.6.1.A.S._.*Xg : 9 > %.}.D.I.(.|.A._.(./.+X_.a.i ~ $ ~.Q ",
"S.&.A ( c $XeXOX;X-X!.;XuXt.: i i 8 h.}.[.%.4 i r 4 o.9.w.h @ 9 1 #.e.1.1.C.Q.0.;.[ ] : q , W 4XE..X|.:XfXP.B &X XiXs.p NX0 8X  ",
"a.} / BXI 8./.dX!.!.0XW.).U.e e i 7 V.L.L.!.y r 5 i J.,.0.o.+ 9 1 E `.,.C.E.3.].h z oX+ 0 < K 3X(.|.XXD.jXM - iX.X_.p.0 K $ yX  ",
";.p.G a r A.:XdXW.eXW.W.R.4XM , 5 K $XZ.<._.E 1 1 M _.R.1.w.B : 0 S L._.!.1.].Z.O B 6X] + e 7 ~.%XE.XXrX#XX z iX>XvX$.I ) & aX  ",
"  T.< H S a._.:X0XW.U.R.P.}.p., : Q `.2.S.q.} 3 , | 0.B.3.1.`.N > : I 2X0.e.V.: O Z %X3Xm , : H rX%X3X~.> . n GXI.{.Q e H z yX  ",
"  R.a y A %.].-X7.Z.Y.7.7.7./.x 8 a.0.B.V..XS.u t ;.5.<.1.3.5.`.a.U s E g.u.x U { X.fX(.rXG.M i K f.h.j z { [ >X>XpXz ! H m gX  ",
"  P.c ( T M {.P.~.W.P.R.P.Z.P.W.R.U.S.B.4.4.E.P.3.1.4.3.3.3.3.3.0.].).d.a.;.L.3XrX+XD.(.|.3X4XtXQ.g.T.>XpXiXrX>XJ.qX0 T $ :.8X  ",
"  D.V ^ ) I 9.I.-XY.P.V.'.).B.A.A.6.+...4.<.B.(.5.Z.6.1.7.7.7.7.7.F.8.J.0.).I.A.;X(.I.(.A.(.+X X&X&X>X&X+X:X&XfXaXd.$ 0 . yX=.  ",
"    :.8 VXL X.oXS.6.V.].W #.0.3.4.<.3.S.B.B.3.3.C.R.3.,.1.7.7.8.8.Z.8.7.7.I..XE.I.|..X+X:XXX).|.XX%XrX1XuX>X,X0.zXQ o 6 - xX    ",
"    I.i T G V q.Q.-X[.a.1 T.I.5.6.2.N.<.+.+.B.C.C.3.F.I.R.7.5.@XE.5.D.OXE.U.I.(.|.(.A.J.|.+X+X+XtXg.E ~ c G.JX>XU.9 VXH m yX    ",
"    /.C 8 NXK F.0.oX;.# R.U N _.2.N.3.3.3.C.C.3.7.C.Z.Z.E.J.].~ p.]. XQ.E.|.U.(.XXOXOX|.|.+X+X+XpX] s ~ c g. XuXb.= c.6 ~.f.    ",
"      ;.G MX8 } q.P.X...E a 2.6.A.<.C.R.R.R.B.C.I.F.1.8.<.X.U.u W P.X.8.J.A.XX+X(.OX:X>X>X,X&X>XM ^.bXhXuXFXXX4Xw K y * bX      ",
"      [.c t ` a /.3.[.a.G -X_.X.X.7.C.3.3.3.C.C.D.7.6.A.0.M 4 i t u X._.(.D.|.+X X.X X XoX+XrXrXc > f.8X;XH.iXk.< MX8 ;.8X      ",
"      ;.;.S _ 4 { q.N.G.5.e.G.D | 2XC.3.C.C.A.C.7.D.C.7.A.2XW : 3 G.<XI./.|.|.XX|.oX+X+X XtXg.-XGX=X< %.GX X>Xw a K & xX        ",
"        }.- S ZXS V.0.o.q.m 3 o..X~ Z.D.F.D.C.D.L.P.Q.Z.8./.x y.K V {.A..X:X.X+X+X+X:X,XrXjX] $ ~ dX@X:X5.jXy.% l.. a.sX        ",
"        a.3.S ` A j 0.+.tXN p.}.%.s 2.3.D.S.D.1.7.7.A.,XJ.a.s.<X'.h.J.+X:X/.(._. X:XtXrXh.qXiXf.k g jXfX5Xd.9 _ 6 h GX          ",
"          [.m : M.L n {.O.&X8.C.#.I |.4.0.0.P.Q.8.F.A.8.OX|.`.F._.[..X+X/. X_.,X>X3XC.qXE p bX0XhXlX>X9.vX0 I ( # oXm.          ",
"            ].q ' BXD m {.N.G.`.I W [.%XX.&.8.J.&X8.C.!.E.,XI.(.J..X:X+X:XJ. XlX&X^.{ < GXe U tXqX+X*XFXw H VX. ] GX            ",
"            !.1.: P z.A | e.@.|.;.7.0.o.4 d.X.;.T.Q.A.*X+X/.I._.XX_.>X>X{.>XlXV.s.g.jXc x 9Xg &XfXA.iXh $ ZX0 g GX              ",
"              U...O l.! 4 >.<X@._./.].- v pX/.p.S (.{.F.G.rX X&X(..X.X|.d.>XzXh b bXiXaXy K.GXXX5.GXv j ! 6 * cXy.              ",
"                5X[ + ) ) + } [.w.2.oXo.h.n.rXz N 6XX.M g.#.d.M tX Xh &.&.z uXd.@ ZX;.;.cX>X5.iXdXb . VX/ . uXm.                ",
"                  %X[ 3 a M., E Y.w.S.J.:Xg.1.e k.$Xw M &X9 { j iXoXV M @X+ &XzX%.W wXwXJ.&XrXj.$ i z.O % uX9X                  ",
"                    2X[ 7 / x.s 9 j.{.8.XX_.D.T.u.V.N } %.c a.q iX(.d.u k.B fX>XxXiXXX>X*XyXC 2 x.! e * 4X9X                    ",
"                      4X1.f t M.NXX v ^.].J.+X0.>XtXJ.-Xh.(.%XW n. X Xu.-XtXlXfX8.>X&X5Xv.w s ! VX5 * zXm.                      ",
"                        K.'.; A T H S % M s.'.{.tX5.&X(.tX&X>XiX:X,X>XjX*XfXJ.jX5XwXi.v $ T VXk .  .GXy.                        ",
"                          k.7X| % > 9 x.L k x $.a.U.pX`.iX*XrX{.%XrX}.zX{.jX!.p.C $ q u x.( % g !.nX                            ",
"                              yX1XN O k z.NXE 4 K I M $.$.d.g.d.g.g.f.y.y.b 9 9 z.H x 2 + - X.FXm.                              ",
"                                  1X1XN 0 4 e z.VXK L 5 P e s s j H e u t ! l._ z.L . q a.aX=X                                  ",
"                                      eX1Xp.z p 2 u t I VXx z.MX~ ` ! ! e G H f * N ~.jX=X                                      ",
"                                          ^.aX~.K.%.n j q 0 0 q 2 2 j q z n | -XeXyXf.                                          ",
"                                                s.8XyXtXeXyX8X8X-X8XeX@XwXyX^.y.                                                ",
"                                                              Q                                                                 "
};
