/* XPM */
static char *_4985d2a8915463ab12c91a6cf7ee978[] = {
/* columns rows colors chars-per-pixel */
"16 16 198 2 ",
"   c None",
".  c #332E1D",
"X  c #1F2532",
"o  c #2E2222",
"O  c #27272A",
"+  c #242330",
"@  c #333136",
"#  c #393530",
"$  c #383839",
"%  c #4D3827",
"&  c #4D3A26",
"*  c #423F34",
"=  c #4F452E",
"-  c #55402B",
";  c #42403A",
":  c #47433A",
">  c #49463A",
",  c #5A4936",
"<  c #534E3D",
"1  c #584C3C",
"2  c #53533A",
"3  c #565438",
"4  c #63482C",
"5  c #734D2B",
"6  c #644C30",
"7  c #6B5130",
"8  c #645239",
"9  c #6D5C3F",
"0  c #7F5E38",
"q  c #73613F",
"w  c #7E633C",
"e  c #384042",
"r  c #35484E",
"t  c #3A4B51",
"y  c #444541",
"u  c #444C44",
"i  c #474D46",
"p  c #4A4C46",
"a  c #40464A",
"s  c #464C4A",
"d  c #4A4C48",
"f  c #504F41",
"g  c #565045",
"h  c #595140",
"j  c #595240",
"k  c #5A5843",
"l  c #5F5B40",
"z  c #5F5B41",
"x  c #5E5A42",
"c  c #5E5D42",
"v  c #53524F",
"b  c #5D5848",
"n  c #5C5849",
"m  c #605740",
"M  c #625740",
"N  c #635B47",
"B  c #616045",
"V  c #646547",
"C  c #6A6246",
"Z  c #6B6347",
"A  c #6E6448",
"S  c #796943",
"D  c #7F6940",
"F  c #786945",
"G  c #7B6D45",
"H  c #716549",
"J  c #666D53",
"K  c #845C31",
"L  c #9E7B3E",
"P  c #A47636",
"I  c #A87A3A",
"U  c #B27F3B",
"Y  c #8E7744",
"T  c #8F7646",
"R  c #817148",
"E  c #927642",
"W  c #967744",
"Q  c #957C44",
"!  c #9E7840",
"~  c #827354",
"^  c #A27E41",
"/  c #A27F43",
"(  c #A37F44",
")  c #A97E43",
"_  c #AD803E",
"`  c #B5823B",
"'  c #B9853D",
"]  c #BB883E",
"[  c #CA8938",
"{  c #C8903D",
"}  c #CF913F",
"|  c #D29539",
" . c #EA9B38",
".. c #F09F39",
"X. c #FFAB3E",
"o. c #918847",
"O. c #968549",
"+. c #97844F",
"@. c #9D874F",
"#. c #9D914F",
"$. c #9B8353",
"%. c #9D8150",
"&. c #A38040",
"*. c #A78141",
"=. c #A78143",
"-. c #A98142",
";. c #AA8042",
":. c #AD8441",
">. c #A1844F",
",. c #A98348",
"<. c #AB8549",
"1. c #B58943",
"2. c #BB8C42",
"3. c #BC8F44",
"4. c #A68E54",
"5. c #A79151",
"6. c #A79153",
"7. c #AE9354",
"8. c #AE9657",
"9. c #A1905A",
"0. c #A49058",
"q. c #AA9659",
"w. c #A39A59",
"e. c #B29251",
"r. c #B09757",
"t. c #B49456",
"y. c #B09758",
"u. c #BFA354",
"i. c #B0A25D",
"p. c #BFAC5B",
"a. c #828161",
"s. c #A4A568",
"d. c #B3AB66",
"f. c #ABB36C",
"g. c #C28E40",
"h. c #C58E42",
"j. c #C79040",
"k. c #C49042",
"l. c #C29445",
"z. c #CF9641",
"x. c #C99944",
"c. c #C5954A",
"v. c #C0964C",
"b. c #C39948",
"n. c #C5984A",
"m. c #D39741",
"M. c #D59540",
"N. c #D19E49",
"B. c #C19B50",
"V. c #C69F54",
"C. c #C8A04B",
"Z. c #D5A045",
"A. c #CDA254",
"S. c #C1A954",
"D. c #C5A75A",
"F. c #CCA458",
"G. c #D6AD58",
"H. c #DFB959",
"J. c #ECA442",
"K. c #EBA444",
"L. c #E6AF44",
"P. c #F3AF47",
"I. c #F9AD45",
"U. c #FDB243",
"Y. c #F5BF4E",
"T. c #F0AF50",
"R. c #F1B254",
"E. c #FFBD5C",
"W. c #C8AB62",
"Q. c #C6B360",
"!. c #C7B764",
"~. c #C9B264",
"^. c #CABF63",
"/. c #D0BE61",
"(. c #FCBF60",
"). c #FFCF48",
"_. c #FDC652",
"`. c #FFC457",
"'. c #FFC656",
"]. c #FFCE57",
"[. c #FFC75C",
"{. c #FFCE5D",
"}. c #DCC971",
"|. c #D7C77B",
" X c #DDDA7B",
".X c #E3C462",
"XX c #E5D06C",
"oX c #E7D46D",
"OX c #FFD263",
"+X c #FFDE6E",
"@X c #FFD878",
"#X c #FFEB69",
"$X c #FFE872",
"%X c #DAD980",
"&X c #FFFA84",
"*X c #FFFF8E",
"=X c #FFFF99",
"-X c #FFFF9E",
/* pixels */
"          G M h 1 C Y           ",
"      Q p J s.d.i.0.k i         ",
"    w r f.*X&XoX.XOX'.^ e &.    ",
"  E t  X=X}.o.Z A L N.U.k.$     ",
"  s %X-X@X$X= + X 7 P.} X.;.f   ",
"R a.^.!.~.D.G.Z.b.! [ h.( m.9   ",
"N |.O.. w.@ Y.% 0 | 4 , x.' >.l ",
"n W.+XO 6.y P o K ).- # ].{.<.2 ",
"b t.#X> q S 6 5 8 L.& * H.2.r.c ",
"j $._.3.U ] I ..1./ l.B.e.S.+.3 ",
"W ~ { -. .M.J._ g.T.E.[.7.XXF   ",
"  d ) ` ,.K.I.D T `.(.y.Q.@.<   ",
"    v j.z.:.c.T.R.A.5.p.F.g     ",
"    *.a =.C.n.v.V.u./.4.; #.    ",
"        u H %.8.q.9.m :         ",
"            V B x z             "
};
